<?xml version="1.0" encoding="utf-8"?>
<!-- Generator: Adobe Illustrator 15.0.2, SVG Export Plug-In  -->
<!DOCTYPE svg PUBLIC "-//W3C//DTD SVG 1.1//EN" "http://www.w3.org/Graphics/SVG/1.1/DTD/svg11.dtd" [
	<!ENTITY ns_flows "http://ns.adobe.com/Flows/1.0/">
]>
<svg version="1.1"
	 xmlns="http://www.w3.org/2000/svg" xmlns:xlink="http://www.w3.org/1999/xlink" xmlns:a="http://ns.adobe.com/AdobeSVGViewerExtensions/3.0/"
	 x="0px" y="0px" width="1350px" height="550px" viewBox="-31.525 -42.302 1350 550"
	 enable-background="new -31.525 -42.302 1350 550" xml:space="preserve">
<defs>
</defs>
<path d="M499.245,230.413h-7.583v-43.685c0-3.451,0.211-7.674,0.636-12.669h-0.182c-0.727,2.937-1.378,5.041-1.953,6.312
	l-22.251,50.042h-3.724l-22.206-49.679c-0.636-1.453-1.287-3.678-1.953-6.675h-0.182c0.242,2.604,0.363,6.857,0.363,12.76v43.594
	h-7.356v-65.118h10.081l19.98,45.41c1.544,3.481,2.543,6.085,2.997,7.811h0.272c1.301-3.572,2.346-6.236,3.133-7.992l20.389-45.229
	h9.536V230.413z"/>
<path d="M519.18,172.106c-1.333,0-2.468-0.454-3.406-1.362c-0.938-0.908-1.408-2.059-1.408-3.451c0-1.392,0.469-2.55,1.408-3.474
	c0.938-0.923,2.073-1.385,3.406-1.385c1.363,0,2.52,0.462,3.474,1.385c0.953,0.923,1.43,2.082,1.43,3.474
	c0,1.333-0.477,2.468-1.43,3.406C521.7,171.637,520.542,172.106,519.18,172.106z M522.812,230.413h-7.447v-46.5h7.447V230.413z"/>
<path d="M569.585,228.278c-3.572,2.149-7.811,3.224-12.715,3.224c-6.63,0-11.981-2.157-16.053-6.471
	c-4.071-4.314-6.107-9.907-6.107-16.779c0-7.659,2.194-13.812,6.584-18.459s10.248-6.971,17.574-6.971
	c4.087,0,7.689,0.757,10.808,2.271v7.629c-3.451-2.422-7.145-3.633-11.08-3.633c-4.753,0-8.65,1.703-11.693,5.108
	c-3.042,3.406-4.563,7.879-4.563,13.419c0,5.449,1.431,9.748,4.291,12.896c2.861,3.149,6.698,4.723,11.512,4.723
	c4.057,0,7.871-1.347,11.443-4.042V228.278z"/>
<path d="M605.096,191.451c-1.302-0.999-3.179-1.499-5.631-1.499c-3.179,0-5.835,1.499-7.97,4.496
	c-2.134,2.997-3.201,7.084-3.201,12.261v23.704h-7.447v-46.5h7.447v9.582h0.182c1.06-3.27,2.68-5.82,4.859-7.652
	c2.18-1.831,4.616-2.747,7.311-2.747c1.938,0,3.421,0.212,4.45,0.636V191.451z"/>
<path d="M631.389,231.502c-6.872,0-12.359-2.172-16.461-6.517c-4.103-4.344-6.153-10.104-6.153-17.278
	c0-7.811,2.135-13.911,6.402-18.3c4.27-4.389,10.036-6.584,17.302-6.584c6.933,0,12.343,2.134,16.234,6.403
	s5.836,10.188,5.836,17.755c0,7.417-2.098,13.358-6.289,17.823C644.066,229.27,638.443,231.502,631.389,231.502z M631.934,189.089
	c-4.783,0-8.567,1.627-11.353,4.882s-4.178,7.742-4.178,13.464c0,5.51,1.408,9.854,4.223,13.033
	c2.816,3.179,6.585,4.768,11.308,4.768c4.813,0,8.515-1.559,11.103-4.677c2.588-3.118,3.883-7.553,3.883-13.305
	c0-5.813-1.295-10.292-3.883-13.441C640.449,190.664,636.748,189.089,631.934,189.089z"/>
<path d="M663.631,228.732v-7.992c4.057,2.997,8.521,4.496,13.396,4.496c6.539,0,9.809-2.18,9.809-6.539
	c0-1.241-0.281-2.293-0.842-3.156c-0.561-0.862-1.316-1.627-2.27-2.293c-0.953-0.666-2.074-1.264-3.361-1.794
	c-1.287-0.529-2.672-1.082-4.154-1.657c-2.059-0.817-3.867-1.642-5.426-2.475c-1.561-0.833-2.861-1.771-3.906-2.815
	c-1.045-1.045-1.832-2.232-2.361-3.565c-0.529-1.332-0.795-2.891-0.795-4.677c0-2.18,0.5-4.109,1.5-5.79
	c0.998-1.68,2.33-3.088,3.996-4.223c1.664-1.136,3.564-1.991,5.697-2.566c2.135-0.575,4.338-0.863,6.607-0.863
	c4.027,0,7.629,0.697,10.809,2.089v7.538c-3.422-2.24-7.357-3.36-11.807-3.36c-1.393,0-2.65,0.159-3.77,0.477
	c-1.121,0.318-2.082,0.765-2.883,1.34c-0.803,0.575-1.424,1.264-1.863,2.066c-0.438,0.802-0.658,1.688-0.658,2.656
	c0,1.211,0.221,2.225,0.658,3.042c0.439,0.817,1.082,1.544,1.932,2.18c0.846,0.636,1.875,1.211,3.088,1.726
	c1.209,0.515,2.588,1.075,4.131,1.68c2.059,0.788,3.906,1.597,5.541,2.43s3.027,1.771,4.178,2.815
	c1.15,1.044,2.035,2.248,2.656,3.61c0.619,1.362,0.932,2.982,0.932,4.859c0,2.301-0.508,4.299-1.521,5.994
	c-1.016,1.696-2.369,3.104-4.064,4.223c-1.695,1.12-3.648,1.953-5.857,2.498c-2.211,0.545-4.527,0.817-6.949,0.817
	C671.289,231.502,667.143,230.579,663.631,228.732z"/>
<path d="M725.342,231.502c-6.871,0-12.359-2.172-16.461-6.517c-4.102-4.344-6.152-10.104-6.152-17.278
	c0-7.811,2.135-13.911,6.402-18.3c4.27-4.389,10.035-6.584,17.301-6.584c6.934,0,12.344,2.134,16.234,6.403
	s5.836,10.188,5.836,17.755c0,7.417-2.098,13.358-6.289,17.823C738.02,229.27,732.396,231.502,725.342,231.502z M725.887,189.089
	c-4.783,0-8.566,1.627-11.352,4.882s-4.178,7.742-4.178,13.464c0,5.51,1.408,9.854,4.223,13.033
	c2.816,3.179,6.584,4.768,11.307,4.768c4.814,0,8.516-1.559,11.104-4.677c2.588-3.118,3.883-7.553,3.883-13.305
	c0-5.813-1.295-10.292-3.883-13.441C734.402,190.664,730.701,189.089,725.887,189.089z"/>
<path d="M781.697,168.11c-1.453-0.817-3.104-1.226-4.949-1.226c-5.209,0-7.811,3.285-7.811,9.854v7.175h10.898v6.357h-10.898v40.143
	h-7.402V190.27h-7.947v-6.357h7.947v-7.538c0-4.874,1.408-8.726,4.223-11.557c2.816-2.831,6.326-4.246,10.535-4.246
	c2.271,0,4.072,0.272,5.404,0.817V168.11z"/>
<path d="M811.076,229.958c-1.756,0.969-4.072,1.453-6.947,1.453c-8.145,0-12.215-4.541-12.215-13.623V190.27h-7.992v-6.357h7.992
	V172.56l7.447-2.407v13.759h11.715v6.357h-11.715v26.202c0,3.118,0.529,5.343,1.588,6.675c1.061,1.333,2.816,1.998,5.268,1.998
	c1.877,0,3.498-0.515,4.859-1.544V229.958z"/>
<path d="M439.325,436.719v-24.557c2.81,2.48,6.18,4.713,10.108,6.697c3.926,1.984,8.062,3.658,12.402,5.023
	c4.341,1.363,8.701,2.418,13.084,3.162c4.381,0.744,8.434,1.116,12.154,1.116c12.815,0,22.386-2.376,28.711-7.132
	c6.325-4.753,9.488-11.596,9.488-20.525c0-4.795-1.054-8.971-3.163-12.526c-2.108-3.554-5.023-6.8-8.744-9.735
	c-3.721-2.935-8.124-5.746-13.208-8.434c-5.085-2.687-10.563-5.52-16.433-8.496c-6.201-3.141-11.99-6.325-17.363-9.55
	c-5.375-3.225-10.046-6.778-14.015-10.666c-3.969-3.886-7.091-8.288-9.364-13.208c-2.275-4.919-3.411-10.686-3.411-17.302
	c0-8.103,1.777-15.15,5.333-21.146c3.554-5.994,8.226-10.934,14.015-14.821c5.787-3.886,12.381-6.778,19.782-8.682
	c7.399-1.901,14.945-2.853,22.634-2.853c17.528,0,30.302,2.108,38.323,6.325v23.44c-10.501-7.275-23.979-10.914-40.432-10.914
	c-4.548,0-9.096,0.477-13.643,1.426c-4.548,0.952-8.6,2.502-12.154,4.651c-3.556,2.151-6.449,4.921-8.682,8.31
	c-2.232,3.391-3.349,7.525-3.349,12.402c0,4.549,0.847,8.477,2.542,11.782c1.694,3.308,4.195,6.325,7.503,9.054
	c3.306,2.729,7.337,5.375,12.092,7.938c4.753,2.564,10.232,5.375,16.433,8.434c6.366,3.143,12.402,6.449,18.107,9.922
	s10.707,7.317,15.007,11.534c4.298,4.217,7.709,8.89,10.232,14.015c2.521,5.127,3.783,10.998,3.783,17.611
	c0,8.766-1.718,16.186-5.147,22.262c-3.432,6.078-8.062,11.02-13.891,14.821c-5.829,3.804-12.548,6.554-20.154,8.247
	c-7.608,1.694-15.627,2.543-24.061,2.543c-2.812,0-6.285-0.229-10.418-0.682c-4.135-0.456-8.352-1.117-12.65-1.984
	c-4.3-0.869-8.372-1.942-12.216-3.225C444.72,439.717,441.639,438.292,439.325,436.719z"/>
<path d="M682.535,443.913h-20.34v-20.092h-0.496c-8.434,15.379-21.499,23.068-39.191,23.068c-30.262,0-45.393-18.023-45.393-54.074
	v-75.902h20.216v72.678c0,26.789,10.251,40.184,30.758,40.184c9.922,0,18.086-3.658,24.495-10.977
	c6.406-7.316,9.611-16.887,9.611-28.711v-73.174h20.34V443.913z"/>
<path d="M789.815,337.5c-3.556-2.729-8.682-4.093-15.379-4.093c-8.682,0-15.937,4.093-21.767,12.278
	c-5.828,8.186-8.743,19.348-8.743,33.486v64.74h-20.34v-127h20.34v26.169h0.496c2.894-8.93,7.317-15.895,13.271-20.897
	c5.953-5.002,12.607-7.504,19.968-7.504c5.29,0,9.343,0.58,12.154,1.736V337.5z"/>
<path d="M879.484,273.752c-3.969-2.232-8.477-3.349-13.519-3.349c-14.222,0-21.332,8.972-21.332,26.913v19.596h29.766v17.363
	h-29.766v109.637h-20.216V334.276h-21.704v-17.363h21.704v-20.588c0-13.311,3.845-23.832,11.534-31.564
	c7.689-7.729,17.28-11.596,28.773-11.596c6.201,0,11.119,0.744,14.759,2.232V273.752z"/>
<path d="M987.137,443.913h-20.34v-19.844h-0.496c-8.849,15.215-21.871,22.82-39.067,22.82c-12.65,0-22.553-3.349-29.704-10.046
	c-7.152-6.697-10.728-15.585-10.728-26.665c0-23.729,13.972-37.537,41.92-41.424l38.075-5.333c0-21.58-8.725-32.37-26.169-32.37
	c-15.298,0-29.104,5.209-41.424,15.627v-20.836c12.483-7.938,26.87-11.906,43.16-11.906c29.847,0,44.772,15.793,44.772,47.377
	V443.913z M966.797,379.668l-30.634,4.217c-9.426,1.324-16.538,3.658-21.332,7.008c-4.796,3.348-7.193,9.281-7.193,17.797
	c0,6.201,2.211,11.267,6.636,15.193c4.422,3.928,10.313,5.891,17.673,5.891c10.087,0,18.417-3.535,24.991-10.604
	c6.572-7.07,9.859-16.02,9.859-26.852V379.668z"/>
<path d="M1112.028,438.083c-9.757,5.87-21.332,8.806-34.727,8.806c-18.107,0-32.723-5.891-43.843-17.674
	c-11.121-11.781-16.681-27.057-16.681-45.826c0-20.918,5.994-37.723,17.983-50.416c11.987-12.69,27.986-19.037,47.997-19.037
	c11.162,0,21.001,2.068,29.518,6.201v20.836c-9.426-6.613-19.515-9.922-30.262-9.922c-12.981,0-23.626,4.65-31.937,13.953
	c-8.309,9.301-12.464,21.518-12.464,36.648c0,14.883,3.907,26.625,11.72,35.223c7.814,8.6,18.294,12.898,31.44,12.898
	c11.079,0,21.497-3.678,31.254-11.038V438.083z"/>
<path d="M1244.857,385.498h-89.669c0.329,14.139,4.134,25.053,11.41,32.742c7.274,7.689,17.28,11.534,30.014,11.534
	c14.304,0,27.45-4.713,39.439-14.139v19.1c-11.162,8.104-25.921,12.154-44.276,12.154c-17.942,0-32.041-5.768-42.292-17.301
	c-10.253-11.535-15.379-27.76-15.379-48.68c0-19.76,5.601-35.862,16.806-48.307c11.202-12.443,25.114-18.666,41.733-18.666
	s29.475,5.375,38.571,16.123c9.095,10.75,13.643,25.673,13.643,44.772V385.498z M1224.021,368.258
	c-0.083-11.74-2.914-20.877-8.496-27.409c-5.58-6.53-13.332-9.798-23.254-9.798c-9.593,0-17.735,3.432-24.433,10.294
	c-6.697,6.864-10.833,15.835-12.402,26.913H1224.021z"/>
<path d="M829.125,193.96c-3.442,0-6.378-1.214-8.807-3.644c-2.43-2.429-3.645-5.365-3.645-8.807c0-3.442,1.215-6.377,3.645-8.807
	c2.429-2.429,5.364-3.644,8.807-3.644c3.431,0,6.361,1.215,8.791,3.644c2.429,2.43,3.644,5.365,3.644,8.807
	c0,3.442-1.215,6.378-3.644,8.807C835.486,192.746,832.556,193.96,829.125,193.96z M829.125,170.519
	c-3.033,0-5.623,1.074-7.77,3.221c-2.147,2.147-3.221,4.737-3.221,7.77c0,3.033,1.073,5.62,3.221,7.761
	c2.146,2.142,4.736,3.212,7.77,3.212c3.032,0,5.619-1.071,7.762-3.212c2.141-2.142,3.212-4.729,3.212-7.761
	c0-3.032-1.071-5.622-3.212-7.77C834.744,171.593,832.157,170.519,829.125,170.519z M835.168,189.295h-2.689l-1.727-3.802
	c-0.875-1.903-1.815-2.855-2.822-2.855h-1.461v6.657h-2.208v-15.838h4.449c1.849,0,3.272,0.388,4.274,1.162
	c1.002,0.775,1.503,1.826,1.503,3.154c0,1.085-0.352,2.009-1.054,2.772c-0.703,0.764-1.686,1.278-2.947,1.544v0.066
	c0.874,0.188,1.743,1.162,2.606,2.922L835.168,189.295z M826.469,175.35v5.412h2.374c2.181,0,3.271-0.907,3.271-2.723
	c0-0.974-0.293-1.666-0.88-2.075c-0.587-0.409-1.517-0.614-2.789-0.614H826.469z"/>
<path d="M1269.125,343.46c-3.442,0-6.378-1.214-8.807-3.644c-2.43-2.43-3.645-5.365-3.645-8.808s1.215-6.378,3.645-8.808
	c2.429-2.429,5.364-3.644,8.807-3.644c3.431,0,6.361,1.215,8.791,3.644c2.429,2.43,3.644,5.365,3.644,8.808
	s-1.215,6.378-3.644,8.808C1275.486,342.247,1272.556,343.46,1269.125,343.46z M1269.125,320.019c-3.033,0-5.623,1.073-7.77,3.221
	c-2.147,2.147-3.221,4.737-3.221,7.77s1.073,5.62,3.221,7.761c2.146,2.143,4.736,3.213,7.77,3.213c3.032,0,5.619-1.07,7.762-3.213
	c2.141-2.141,3.212-4.729,3.212-7.761s-1.071-5.622-3.212-7.77C1274.744,321.092,1272.157,320.019,1269.125,320.019z
	 M1275.168,338.795h-2.689l-1.727-3.802c-0.875-1.903-1.815-2.855-2.822-2.855h-1.461v6.657h-2.208v-15.838h4.449
	c1.849,0,3.272,0.388,4.274,1.162c1.002,0.775,1.503,1.826,1.503,3.154c0,1.085-0.352,2.009-1.054,2.772
	c-0.703,0.764-1.686,1.278-2.947,1.544v0.066c0.874,0.188,1.743,1.162,2.606,2.922L1275.168,338.795z M1266.469,324.85v5.412h2.374
	c2.181,0,3.271-0.907,3.271-2.723c0-0.974-0.293-1.666-0.88-2.075s-1.517-0.614-2.789-0.614H1266.469z"/>
<path d="M267.208,444.46c-3.442,0-6.378-1.214-8.807-3.644c-2.43-2.43-3.644-5.365-3.644-8.808s1.214-6.378,3.644-8.808
	c2.429-2.429,5.365-3.644,8.807-3.644c3.431,0,6.361,1.215,8.791,3.644c2.429,2.43,3.644,5.365,3.644,8.808
	s-1.215,6.378-3.644,8.808C273.569,443.247,270.639,444.46,267.208,444.46z M267.208,421.019c-3.033,0-5.623,1.073-7.77,3.221
	c-2.147,2.147-3.221,4.737-3.221,7.77s1.073,5.62,3.221,7.761c2.147,2.143,4.737,3.213,7.77,3.213c3.032,0,5.62-1.07,7.761-3.213
	c2.142-2.141,3.212-4.729,3.212-7.761s-1.071-5.622-3.212-7.77S270.241,421.019,267.208,421.019z M273.251,439.795h-2.689
	l-1.727-3.802c-0.875-1.903-1.815-2.855-2.822-2.855h-1.461v6.657h-2.208v-15.838h4.449c1.848,0,3.273,0.388,4.275,1.162
	c1.001,0.775,1.502,1.826,1.502,3.154c0,1.085-0.352,2.009-1.054,2.772c-0.703,0.764-1.685,1.278-2.947,1.544v0.066
	c0.874,0.188,1.743,1.162,2.606,2.922L273.251,439.795z M264.552,425.85v5.412h2.374c2.18,0,3.271-0.907,3.271-2.723
	c0-0.974-0.293-1.666-0.88-2.075c-0.587-0.409-1.517-0.614-2.789-0.614H264.552z"/>
<path fill="#EA1968" d="M199.993,152.43c-39.516,0-71.664-34.189-71.664-76.214C128.329,34.19,160.477,0,199.993,0
	c39.515,0,71.663,34.19,71.663,76.215C271.656,118.241,239.508,152.43,199.993,152.43z M199.993,24.999
	c-25.731,0-46.665,22.976-46.665,51.216s20.934,51.215,46.665,51.215s46.664-22.975,46.664-51.215S225.724,24.999,199.993,24.999z"
	/>
<path fill="#EA1968" d="M199.462,251.383c-29.627,40.622-63.316,60.932-101.053,60.932c-29.1,0-52.775-7.865-71.029-23.597
	C9.127,272.987,0,252.417,0,227.01c0-23.931,9.524-44.427,28.57-61.487c19.048-17.062,42.327-25.592,69.839-25.592
	c41.621,0,75.658,20.163,102.111,60.491c28.924-40.328,62.433-60.491,100.526-60.491c29.271,0,53.082,7.866,71.426,23.598
	c18.342,15.731,27.512,36.305,27.512,61.708c0,23.785-9.523,44.241-28.571,61.376c-19.046,17.136-42.502,25.702-70.367,25.702
	C261.188,312.315,227.329,292.005,199.462,251.383z M183.062,225.68c-23.28-38.698-51.498-58.053-84.653-58.053
	c-19.403,0-34.88,5.539-46.428,16.618c-11.55,11.078-17.326,25.336-17.326,42.765c0,16.252,5.952,29.768,17.856,40.547
	c11.905,10.783,27.205,16.176,45.898,16.176C129.448,283.733,157.666,264.381,183.062,225.68z M216.659,226.124
	c23.102,38.406,51.228,57.609,84.387,57.609c19.22,0,34.61-5.355,46.163-16.064c11.547-10.709,17.328-24.851,17.328-42.432
	c0-16.541-5.998-30.278-17.989-41.213c-11.996-10.932-27.159-16.396-45.501-16.396C270.533,167.627,242.407,187.126,216.659,226.124
	z"/>
<path fill="#EA1968" d="M196.517,444.168c-7.136,0-14.003-1.381-20.411-4.104c-34.974-14.865-46.384-64.119-25.978-112.129
	c16.063-37.813,47.545-63.218,78.338-63.218c7.136,0,14.003,1.38,20.41,4.103c17.494,7.434,29.605,23.776,34.105,46.02
	c4.154,20.533,1.268,44.012-8.125,66.11C258.791,418.762,227.309,444.168,196.517,444.168z M228.465,289.717
	c-20.572,0-43.324,19.736-55.33,47.996c-14.427,33.941-8.588,70.275,12.748,79.344c3.296,1.401,6.875,2.112,10.634,2.112
	c20.572,0,43.325-19.736,55.331-47.995c7.438-17.5,9.792-35.746,6.631-51.377c-2.817-13.922-9.699-23.854-19.379-27.969
	C235.801,290.428,232.223,289.717,228.465,289.717z"/>
</svg>
